<svg xmlns="http://www.w3.org/2000/svg" xmlns:xlink="http://www.w3.org/1999/xlink" viewBox="0 0 191.58 191.38"><defs><style>.cls-1{fill:url(#linear-gradient);}.cls-2{fill:#a78bfa;}</style><linearGradient id="linear-gradient" x1="46.9" y1="46.7" x2="165.48" y2="165.28" gradientUnits="userSpaceOnUse"><stop offset="0" stop-color="#a78bfa"/><stop offset="1" stop-color="#4f46e5"/></linearGradient></defs><g id="Layer_2" data-name="Layer 2"><g id="Layer_1-2" data-name="Layer 1"><path class="cls-1" d="M102.47,13.17A89.88,89.88,0,0,0,76.65,17a54.73,54.73,0,0,0,8.8,11.53,55.76,55.76,0,0,0,15.34,10.87c.55,0,1.13,0,1.68,0a63,63,0,1,1-63,63c0-.39,0-.78,0-1.17A55.57,55.57,0,0,0,17.11,76.63a89.12,89.12,0,1,0,85.36-63.46Z"/><path class="cls-2" d="M73.7,40.27A56.78,56.78,0,0,1,57,0,57.12,57.12,0,0,1,40.35,40.27,57.19,57.19,0,0,1,0,56.94a57,57,0,0,1,57,57A56.93,56.93,0,0,1,114,56.94,56.86,56.86,0,0,1,73.7,40.27Z"/></g></g></svg>